<svg width="32" height="32" viewBox="0 0 32 32" fill="none" xmlns="http://www.w3.org/2000/svg">
<rect width="32" height="32" rx="5" fill="#00000D"/>
<path d="M15.776 23.312C14.336 23.312 13.032 23.144 11.864 22.808C10.712 22.472 9.712 21.968 8.864 21.296C8.032 20.624 7.392 19.792 6.944 18.8C6.496 17.808 6.272 16.664 6.272 15.368C6.272 14.056 6.504 12.896 6.968 11.888C7.448 10.864 8.12 10 8.984 9.296C9.864 8.592 10.904 8.064 12.104 7.712C13.32 7.344 14.664 7.16 16.136 7.16C17.88 7.16 19.384 7.408 20.648 7.904C21.912 8.384 22.904 9.064 23.624 9.944C24.36 10.824 24.776 11.872 24.872 13.088H21.8C21.592 12.448 21.248 11.896 20.768 11.432C20.304 10.952 19.688 10.584 18.92 10.328C18.152 10.056 17.224 9.92 16.136 9.92C14.744 9.92 13.552 10.144 12.56 10.592C11.584 11.04 10.84 11.672 10.328 12.488C9.816 13.304 9.56 14.264 9.56 15.368C9.56 16.44 9.784 17.368 10.232 18.152C10.68 18.92 11.368 19.512 12.296 19.928C13.24 20.344 14.44 20.552 15.896 20.552C17.016 20.552 18 20.408 18.848 20.12C19.712 19.816 20.432 19.416 21.008 18.92C21.584 18.408 21.992 17.84 22.232 17.216L23.48 16.76C23.272 18.824 22.488 20.432 21.128 21.584C19.784 22.736 18 23.312 15.776 23.312ZM22.664 23C22.664 22.504 22.696 21.936 22.76 21.296C22.824 20.64 22.904 19.984 23 19.328C23.096 18.656 23.184 18.04 23.264 17.48H16.16V15.44H25.424V23H22.664Z" fill="white"/>
</svg>
